<?xml version="1.0" encoding="utf-8"?>
<!-- Generator: Adobe Illustrator 16.0.0, SVG Export Plug-In . SVG Version: 6.00 Build 0)  -->
<!DOCTYPE svg PUBLIC "-//W3C//DTD SVG 1.1//EN" "http://www.w3.org/Graphics/SVG/1.1/DTD/svg11.dtd">
<svg version="1.1" id="Capa_1" xmlns="http://www.w3.org/2000/svg" xmlns:xlink="http://www.w3.org/1999/xlink" x="0px" y="0px"
	 width="338.183px" height="165.93px" viewBox="0 0 338.183 165.93" enable-background="new 0 0 338.183 165.93"
	 xml:space="preserve">
<g>
	<g>
		<g>
			<g>
				<path fill="#6E6F67" d="M44.317,50.58c0.877,0.874,2.049,1.355,3.285,1.358c1.262,0.001,2.443-0.489,3.334-1.382
					c1.813-1.832,1.801-4.8-0.03-6.623L32.335,25.512c-0.883-0.874-2.049-1.355-3.29-1.359c-1.26-0.001-2.438,0.488-3.329,1.383
					c-1.816,1.834-1.805,4.801,0.021,6.615L44.317,50.58z"/>
			</g>
			<g>
				<path fill="#348FB0" d="M134.971,140.516c1.77,1.76,4.853,1.748,6.614-0.025c1.813-1.83,1.801-4.801-0.025-6.617l-18.574-18.429
					c-0.878-0.87-2.047-1.354-3.287-1.356c-1.259-0.002-2.443,0.49-3.337,1.384c-1.808,1.826-1.797,4.799,0.032,6.611
					L134.971,140.516z"/>
			</g>
			<g>
				<path fill="#348FB0" d="M83.979,164.624c2.574-0.014,4.664-2.122,4.651-4.694l-0.097-26.169
					c-0.013-2.563-2.103-4.653-4.661-4.661c-1.287,0.006-2.46,0.496-3.338,1.386c-0.885,0.886-1.365,2.063-1.359,3.311l0.104,26.167
					c0.007,2.563,2.106,4.653,4.673,4.659L83.979,164.624z"/>
			</g>
			<g>
				<path fill="#6E6F67" d="M83.466,36.923c1.254-0.004,2.429-0.495,3.307-1.381c0.877-0.884,1.359-2.061,1.353-3.312L88.025,6.069
					c-0.011-2.566-2.106-4.658-4.667-4.664c-1.277,0.005-2.454,0.499-3.331,1.386c-0.88,0.888-1.364,2.061-1.354,3.306l0.099,26.173
					c0.01,2.561,2.103,4.647,4.659,4.653"/>
			</g>
			<g>
				<path fill="#348FB0" d="M44.573,115.756l-18.428,18.578c-0.878,0.888-1.361,2.062-1.357,3.311
					c0.005,1.247,0.493,2.417,1.381,3.298c1.778,1.768,4.859,1.75,6.62-0.021l18.427-18.574c1.816-1.832,1.804-4.801-0.028-6.617
					c-0.877-0.873-2.042-1.353-3.283-1.356C46.645,114.369,45.46,114.86,44.573,115.756"/>
			</g>
			<g>
				<path fill="#348FB0" d="M6.739,87.994L32.9,87.889c1.253-0.002,2.431-0.494,3.307-1.38c0.881-0.888,1.364-2.062,1.358-3.317
					c-0.006-2.564-2.104-4.651-4.668-4.655L6.698,78.638c-1.249,0.005-2.423,0.496-3.303,1.383
					c-0.877,0.888-1.362,2.067-1.354,3.321c0.01,2.56,2.104,4.646,4.669,4.652H6.739z"/>
			</g>
			<g>
				<path fill="#6E6F67" d="M66.042,40.421c2.383-0.987,3.521-3.727,2.535-6.107L58.58,10.131c-0.725-1.752-2.418-2.886-4.316-2.89
					c-0.614,0-1.218,0.119-1.795,0.356c-1.153,0.476-2.053,1.378-2.53,2.531c-0.482,1.153-0.479,2.423-0.003,3.573l9.995,24.186
					c0.727,1.751,2.42,2.885,4.318,2.89C64.863,40.778,65.463,40.659,66.042,40.421"/>
			</g>
			<g>
				<path fill="#348FB0" d="M114.827,158.429c1.16-0.476,2.059-1.374,2.541-2.527c0.477-1.154,0.479-2.429-0.001-3.585
					l-9.995-24.182c-0.725-1.75-2.422-2.885-4.316-2.887c-0.615-0.002-1.217,0.117-1.792,0.352c-1.156,0.482-2.059,1.38-2.537,2.535
					c-0.48,1.152-0.482,2.426-0.004,3.587l9.996,24.172c0.727,1.754,2.421,2.887,4.319,2.891
					C113.651,158.789,114.253,158.667,114.827,158.429"/>
			</g>
			<g>
				<path fill="#348FB0" d="M65.989,125.585c-0.578-0.236-1.176-0.359-1.787-0.361c-1.901-0.004-3.605,1.129-4.335,2.888
					l-10.028,24.167c-0.987,2.379,0.148,5.122,2.525,6.108c0.572,0.237,1.175,0.36,1.786,0.36c1.901,0.002,3.605-1.131,4.337-2.892
					l10.029-24.164C69.502,129.313,68.368,126.572,65.989,125.585"/>
			</g>
			<g>
				<path fill="#348FB0" d="M14.34,116.723l24.182-9.994c2.384-0.987,3.524-3.727,2.541-6.108c-0.729-1.753-2.419-2.888-4.317-2.894
					c-0.611-0.004-1.215,0.119-1.791,0.355l-24.183,9.999c-2.39,0.984-3.529,3.726-2.546,6.114c0.727,1.744,2.42,2.881,4.316,2.885
					C13.157,117.081,13.765,116.963,14.34,116.723"/>
			</g>
			<g>
				<path fill="#348FB0" d="M10.806,57.846l24.16,10.027c0.573,0.236,1.173,0.358,1.782,0.358c1.904,0.005,3.605-1.131,4.335-2.886
					c0.988-2.384-0.144-5.124-2.527-6.115L14.388,49.205c-0.572-0.238-1.172-0.356-1.78-0.359c-1.906-0.005-3.605,1.127-4.331,2.883
					c-0.481,1.159-0.484,2.426-0.008,3.581C8.747,56.464,9.647,57.367,10.806,57.846"/>
			</g>
		</g>
		<g>
			<g>
				<g>
					<path fill="#348FB0" d="M79.078,66.848c0-1.983,1.674-3.606,3.721-3.606h0.717c2.048,0,3.724,1.623,3.724,3.606v36.159
						c0,1.983-1.675,3.605-3.724,3.605h-0.717c-2.047,0-3.721-1.622-3.721-3.605V66.848z"/>
				</g>
			</g>
		</g>
		<g>
			<g>
				<path fill="#6E6F67" d="M79.194,50.966c0-1.66,1.188-3.018,2.641-3.018h2.726c1.451,0,2.641,1.357,2.641,3.018v3.634
					c0,1.659-1.19,3.016-2.641,3.016h-2.726c-1.452,0-2.641-1.357-2.641-3.016V50.966z"/>
			</g>
		</g>
	</g>
	<g>
		<g>
			<g>
				<g>
					<g>
						<path fill="#6E6F67" d="M101.933,65.602v6.807c2.94-5.258,8.277-7.424,13.613-7.501c10.21,0,17.246,6.264,17.246,16.86v22.043
							h-3.787V81.845c0-8.662-5.338-13.303-13.612-13.225c-7.891,0.077-13.381,6.032-13.381,13.921v21.27H98.22V65.602H101.933z"/>
					</g>
				</g>
				<g>
					<g>
						<path fill="#6E6F67" d="M147.487,54.079v11.523h12.992v3.173h-12.992v23.279c0,5.182,1.081,8.817,7.035,8.817
							c1.857,0,3.946-0.62,5.879-1.547l1.316,3.095c-2.398,1.158-4.796,1.932-7.195,1.932c-8.119,0-10.747-4.795-10.747-12.297
							V68.775h-8.122v-3.173h8.122V54.467L147.487,54.079z"/>
					</g>
				</g>
				<g>
					<g>
						<path fill="#6E6F67" d="M164.833,84.709c0-11.448,8.665-19.724,19.415-19.724s20.339,6.573,18.871,21.501h-34.417
							c0.772,8.973,7.656,14.152,15.546,14.152c5.026,0,10.903-2.011,13.768-5.802l2.706,2.168
							c-3.715,4.873-10.365,7.347-16.474,7.347C173.498,104.351,164.833,96.849,164.833,84.709z M199.713,83.159
							c-0.076-9.435-6.264-14.694-15.466-14.694c-7.89,0-14.694,5.336-15.546,14.694H199.713z"/>
					</g>
				</g>
			</g>
			<g>
				<g>
					<g>
						<path fill="#6E6F67" d="M134.596,105.616h-7.401V81.847c0-7.364-4.122-11.42-11.604-11.42l-0.184,0.001
							c-6.823,0.068-11.59,5.049-11.59,12.114v23.074h-7.403V63.8h7.325v3.541c3.046-2.67,7.129-4.169,11.777-4.236
							c11.601,0,19.079,7.326,19.079,18.665V105.616z M130.808,102.003h0.175V81.769c0-9.285-5.916-15.052-15.439-15.052
							c-1.81,0.025-4.499,0.343-7.053,1.689c2.032-1.003,4.358-1.566,6.88-1.592h0.219c9.386,0,15.217,5.759,15.217,15.032V102.003z
							 M100.027,102.003h0.176v-19.46c0-1.475,0.171-2.887,0.494-4.214l-0.572,1.022V67.413h-0.099V102.003z"/>
					</g>
				</g>
				<g>
					<g>
						<path fill="#6E6F67" d="M154.521,106.156c-8.331,0-12.555-4.742-12.555-14.1V70.584h-8.121V63.8h8.121V52.842l7.327-0.762
							V63.8h12.989v6.785h-12.989v21.472c0,5.372,1.221,7.01,5.228,7.01c1.448,0,3.259-0.487,5.097-1.369l1.705-0.82l2.727,6.419
							l-1.55,0.75C159.563,105.467,156.951,106.156,154.521,106.156z M145.579,66.97v25.086c0,5.306,1.314,8.376,4.367,9.701
							c-4.267-2.091-4.267-7.208-4.267-9.701V56.089l-0.101,0.011V66.97z"/>
					</g>
				</g>
				<g>
					<g>
						<path fill="#6E6F67" d="M184.244,106.156c-11.722,0-19.002-8.216-19.002-21.447c0-12.876,7.636-21.527,19.002-21.527
							c6.567,0,12.232,2.264,15.959,6.373c3.773,4.164,5.403,10.08,4.712,17.11l-0.161,1.629h-33.966
							c1.516,7.262,7.652,10.539,13.456,10.539c4.997,0,10.066-2.09,12.326-5.082l1.121-1.482l5.535,4.428l-1.07,1.404
							C198.367,103.071,191.504,106.156,184.244,106.156z M177.658,101.279c1.923,0.832,4.128,1.265,6.586,1.265
							c3.29,0,6.526-0.765,9.293-2.109c-3.014,1.369-6.401,2.011-9.293,2.011C181.883,102.445,179.668,102.039,177.658,101.279z
							 M170.793,81.355h27.006c-0.773-6.978-5.724-11.081-13.556-11.081C177.383,70.274,172.182,74.649,170.793,81.355z"/>
					</g>
				</g>
			</g>
			<g>
				<g>
					<g>
						<path fill="#6E6F67" d="M214.03,65.602l0.152,6.807c2.399-5.181,7.814-7.191,12.683-7.191c2.866-0.079,5.65,0.695,8.201,2.242
							l-1.702,3.094c-2.011-1.238-4.255-1.778-6.499-1.778c-7.112,0.076-12.604,5.801-12.604,12.761v22.275h-3.792V65.602H214.03z"
							/>
					</g>
				</g>
			</g>
			<g>
				<g>
					<g>
						<path fill="#6E6F67" d="M216.069,105.616h-7.406V63.8h7.132l0.076,3.41c2.78-2.433,6.617-3.797,10.994-3.797l0.387-0.005
							c3.059,0,6,0.844,8.747,2.509l1.48,0.897l-3.448,6.275l-1.615-0.995c-1.632-1.002-3.499-1.51-5.551-1.51
							c-6.046,0.066-10.796,4.877-10.796,10.954V105.616z M212.276,102.003h0.179V81.538c0-0.567,0.031-1.125,0.089-1.674
							l-0.268-11.761V102.003z M222.358,67.708c-0.997,0.309-2.036,0.754-3.016,1.396C220.279,68.53,221.291,68.059,222.358,67.708z
							"/>
					</g>
				</g>
			</g>
			<g>
				<g>
					<g>
						<path fill="#6E6F67" d="M241.092,65.602h4.18l13.923,33.799l13.919-33.799h4.179l-16.013,38.209h-4.176L241.092,65.602z"/>
					</g>
				</g>
				<g>
					<g>
						<path fill="#6E6F67" d="M318.688,65.602c0,12.762,0,25.445,0,38.209h-3.791V95.69c-3.713,5.955-9.435,8.738-15.622,8.738
							c-10.675,0-19.411-8.043-19.411-19.72c0-11.681,8.736-19.569,19.411-19.569c6.188,0,12.452,2.861,15.622,8.817v-8.354H318.688
							z M283.652,84.709c0,9.588,6.96,16.007,15.623,16.007c21.269,0,21.269-31.94,0-31.94
							C290.612,68.775,283.652,75.116,283.652,84.709z"/>
					</g>
				</g>
				<g>
					<g>
						<path fill="#6E6F67" d="M332.758,49.672v54.14h-3.792v-54.14H332.758z"/>
					</g>
				</g>
			</g>
			<g>
				<g>
					<path fill="#6E6F67" d="M262.482,105.618h-6.58l-17.525-41.817h8.106l12.708,30.857l12.712-30.857h8.101L262.482,105.618z
						 M260.075,102.005h0.002l14.494-34.591h-0.249L260.075,102.005z M258.305,102.005h0.006l-14.248-34.591h-0.254L258.305,102.005
						z"/>
				</g>
			</g>
			<g>
				<g>
					<g>
						<path fill="#6E6F67" d="M299.273,106.236c-12.095,0-21.217-9.255-21.217-21.527c0-12.184,9.122-21.372,21.217-21.372
							c5.433,0,10.303,1.907,13.813,5.275V63.8h7.402v41.816h-7.402v-4.818C309.418,104.336,304.655,106.236,299.273,106.236z
							 M299.273,66.95c-10.2,0-17.603,7.469-17.603,17.759c0,10.214,7.565,17.913,17.603,17.913c1.591,0,3.116-0.202,4.556-0.599
							c-1.408,0.325-2.928,0.5-4.556,0.5c-9.935,0-17.428-7.657-17.428-17.814c0-10.278,7.328-17.738,17.428-17.738
							c0.823,0,1.616,0.045,2.384,0.131C300.881,67.001,300.084,66.95,299.273,66.95z M316.701,102.003h0.175V87.167
							c-0.121,0.971-0.318,1.935-0.589,2.877l0.414-0.668V102.003z M299.273,70.584c-8.005,0-13.814,5.94-13.814,14.125
							c0,8.228,5.81,14.2,13.814,14.2c9.718,0,14.142-7.342,14.142-14.164C313.415,77.926,308.991,70.584,299.273,70.584z
							 M316.699,81.187c0.069,0.378,0.13,0.758,0.177,1.139V67.413h-0.175v13.782L316.699,81.187z"/>
					</g>
				</g>
				<g>
					<g>
						<path fill="#6E6F67" d="M334.565,105.618h-7.406V47.87h7.406V105.618z M330.773,102.005h0.179V51.483h-0.179V102.005z"/>
					</g>
				</g>
			</g>
		</g>
	</g>
	<g>
		<g>
			<path fill="#6E6F67" d="M162.422,127.594c-1.072,1.072-2.496,1.608-3.903,1.608c-3.613,0-5.495-2.526-5.511-5.419
				c-0.031-2.861,1.837-5.541,5.511-5.541c1.407,0,2.831,0.536,3.903,1.608l-0.567,0.487c-0.917-0.916-2.127-1.359-3.335-1.359
				c-3.124,0-4.73,2.203-4.714,4.775c0.03,2.51,1.622,4.683,4.714,4.683c1.208,0,2.434-0.459,3.351-1.362L162.422,127.594z"/>
			<path fill="#6E6F67" d="M158.519,129.533c-4.013,0-5.824-2.888-5.84-5.747c-0.019-1.663,0.558-3.173,1.623-4.249
				c1.05-1.063,2.508-1.622,4.217-1.622c1.569,0,3.038,0.604,4.136,1.703l0.251,0.251l-1.068,0.919l-0.216-0.216
				c-0.815-0.813-1.917-1.265-3.103-1.265c-1.301,0-2.397,0.412-3.17,1.189c-0.791,0.797-1.222,1.952-1.214,3.256
				c0.024,2.007,1.187,4.356,4.385,4.356c1.164,0,2.301-0.465,3.119-1.269l0.227-0.222l1.03,0.97l-0.24,0.238
				C161.572,128.911,160.064,129.533,158.519,129.533z M158.519,118.573c-1.528,0-2.824,0.494-3.749,1.428
				c-0.94,0.95-1.448,2.293-1.432,3.779c0.013,2.537,1.621,5.094,5.181,5.094c1.257,0,2.485-0.462,3.421-1.279l-0.072-0.068
				c-0.917,0.791-2.12,1.239-3.349,1.239c-3.443,0-5.014-2.514-5.044-5.007c-0.009-1.482,0.49-2.806,1.406-3.727
				c0.899-0.905,2.157-1.381,3.638-1.381c1.256,0,2.433,0.438,3.345,1.245l0.064-0.055
				C160.989,119.022,159.792,118.573,158.519,118.573z"/>
		</g>
		<g>
			<path fill="#6E6F67" d="M175.612,123.739c-0.014,2.817-1.807,5.523-5.403,5.523c-3.598,0-5.403-2.724-5.403-5.555
				c0-2.877,1.79-5.512,5.403-5.512C173.822,118.196,175.625,120.844,175.612,123.739z M165.616,123.723
				c0.016,2.417,1.547,4.773,4.593,4.773c3.06,0,4.606-2.356,4.606-4.773c0-2.48-1.529-4.76-4.606-4.76
				C167.132,118.964,165.602,121.198,165.616,123.723z"/>
			<path fill="#6E6F67" d="M170.208,129.592c-3.938,0-5.732-3.051-5.732-5.884c0-2.906,1.772-5.84,5.732-5.84
				c1.659,0,3.073,0.542,4.096,1.568c1.063,1.07,1.646,2.6,1.636,4.303C175.926,126.558,174.127,129.592,170.208,129.592z
				 M170.208,118.526c-3.504,0-5.073,2.602-5.073,5.182c0,2.517,1.587,5.227,5.073,5.227c3.485,0,5.06-2.611,5.075-5.197
				c0.006-1.531-0.508-2.893-1.448-3.837C172.94,119.001,171.687,118.526,170.208,118.526z M170.208,128.828
				c-3.359,0-4.906-2.645-4.922-5.104c-0.009-1.494,0.491-2.824,1.408-3.748c0.874-0.878,2.088-1.34,3.514-1.34
				c3.409,0,4.937,2.553,4.937,5.088C175.145,126.181,173.601,128.828,170.208,128.828z M170.208,119.292
				c-1.248,0-2.3,0.398-3.047,1.148c-0.792,0.797-1.224,1.963-1.216,3.281c0.013,2.142,1.354,4.447,4.263,4.447
				c2.939,0,4.278-2.304,4.278-4.445C174.487,121.518,173.164,119.292,170.208,119.292z"/>
		</g>
		<g>
			<path fill="#6E6F67" d="M178.852,118.367l7.21,8.86v-8.86h0.811v10.714h-0.318l-7.228-8.847v8.847h-0.824v-10.714H178.852z"/>
			<path fill="#6E6F67" d="M187.201,129.409h-0.804l-6.742-8.25v8.25h-1.48v-11.372h0.835l6.725,8.263v-8.263h1.467V129.409z
				 M178.831,128.75h0.168v-9.44l7.546,9.236v-9.85h-0.153v9.459l-7.561-9.293V128.75z"/>
		</g>
		<g>
			<path fill="#6E6F67" d="M197.294,120.432c-0.781-1.255-2.034-1.439-3.247-1.453c-1.253,0-3.242,0.459-3.242,2.174
				c0,1.36,1.467,1.683,3.273,2.019c2.067,0.396,4.211,0.766,4.211,3.076c-0.016,2.419-2.448,3.001-4.242,3.001
				c-1.667,0-3.564-0.689-4.391-2.327l0.736-0.365c0.656,1.3,2.339,1.94,3.654,1.94c1.319,0,3.414-0.367,3.414-2.263
				c0.018-1.608-1.759-1.959-3.521-2.297c-1.958-0.383-3.964-0.781-3.964-2.755c-0.045-2.266,2.313-2.969,4.07-2.969
				c1.533,0,2.864,0.245,3.919,1.82L197.294,120.432z"/>
			<path fill="#6E6F67" d="M194.047,129.578c-1.651,0-3.752-0.659-4.686-2.507l-0.15-0.295l1.327-0.66l0.147,0.291
				c0.585,1.156,2.134,1.762,3.361,1.762c0.929,0,3.086-0.188,3.086-1.935c0.012-1.253-1.28-1.595-3.255-1.974
				c-1.983-0.387-4.229-0.826-4.229-3.078c-0.018-0.814,0.249-1.51,0.787-2.06c0.762-0.775,2.109-1.237,3.611-1.237
				c1.728,0,3.1,0.334,4.193,1.966l0.194,0.29l-1.25,0.738l-0.171-0.274c-0.656-1.055-1.663-1.282-2.971-1.298
				c-0.293,0-2.91,0.053-2.91,1.846c0,1.057,1.137,1.347,3.008,1.694l0.112,0.023c2.044,0.391,4.364,0.835,4.364,3.377
				C198.606,128.335,196.898,129.578,194.047,129.578z M190.116,127.061c0.866,1.362,2.568,1.857,3.932,1.857
				c1.172,0,3.897-0.26,3.911-2.673c0-1.861-1.447-2.271-3.829-2.729l-0.113-0.02c-1.738-0.327-3.539-0.661-3.539-2.344
				c0-1.729,1.793-2.502,3.57-2.502c1.176,0.012,2.472,0.19,3.344,1.34l0.098-0.056c-0.897-1.15-1.996-1.394-3.441-1.394
				c-1.326,0-2.502,0.391-3.14,1.042c-0.411,0.419-0.613,0.956-0.603,1.591c0,1.6,1.468,2.003,3.699,2.44
				c1.782,0.34,3.807,0.727,3.785,2.621c0,1.622-1.398,2.592-3.742,2.592c-1.29,0-2.967-0.579-3.784-1.838L190.116,127.061z"/>
		</g>
		<g>
			<path fill="#6E6F67" d="M203.998,119.115h-3.874v-0.734h8.569v0.734h-3.872v9.966h-0.823V119.115z"/>
			<path fill="#6E6F67" d="M205.149,129.409h-1.482v-9.963h-3.872v-1.394h9.229v1.394h-3.875V129.409z M204.326,128.75h0.167v-9.963
				h3.872v-0.078h-7.913v0.078h3.874V128.75z"/>
		</g>
		<g>
			<path fill="#6E6F67" d="M219.729,129.081h-1.086l-3.705-4.058h-2.925v4.058h-0.827v-10.714c1.579,0,3.14,0,4.715,0
				c2.326,0,3.506,1.667,3.521,3.336c0.015,1.745-1.133,3.274-3.477,3.274L219.729,129.081z M212.013,124.245h3.797
				c1.867,0,2.692-1.058,2.708-2.558c0.016-1.255-0.841-2.557-2.617-2.557h-3.888V124.245z"/>
			<path fill="#6E6F67" d="M220.481,129.409h-1.984l-3.703-4.055h-2.451v4.055h-1.484v-11.372h5.043c2.507,0,3.836,1.842,3.85,3.662
				c0.01,1.003-0.336,1.91-0.976,2.558c-0.54,0.543-1.263,0.884-2.12,1.004L220.481,129.409z M218.787,128.75h0.19l-3.783-4.102
				h0.752c0.989,0,1.805-0.295,2.361-0.856c0.515-0.519,0.792-1.261,0.784-2.087c-0.012-1.449-1.016-3.009-3.19-3.009h-4.385v10.054
				h0.169v-4.055h3.398L218.787,128.75z M215.81,124.573h-4.125v-5.771h4.216c0.867,0,1.607,0.285,2.144,0.827
				c0.521,0.529,0.813,1.281,0.802,2.062C218.83,123.522,217.724,124.573,215.81,124.573z M212.342,123.914h3.468
				c1.948,0,2.368-1.212,2.378-2.23c0.008-0.608-0.216-1.185-0.614-1.589c-0.407-0.414-0.986-0.634-1.673-0.634h-3.559V123.914z"/>
		</g>
		<g>
			<path fill="#6E6F67" d="M230.543,118.367v6.656c0,5.604-8.203,5.617-8.203,0v-6.656h0.813v6.656c0,4.608,6.579,4.593,6.579,0
				v-6.656H230.543z"/>
			<path fill="#6E6F67" d="M226.438,129.56c-2.199,0-4.426-1.559-4.426-4.537v-6.986h1.471v6.986c0,2.146,1.532,3.12,2.957,3.12
				c1.428,0,2.965-0.975,2.965-3.12v-6.986h1.469v6.986C230.874,128.002,228.643,129.56,226.438,129.56z M222.668,118.696v6.327
				c0,2.664,1.954,3.878,3.77,3.878c1.818,0,3.776-1.214,3.776-3.878v-6.327h-0.151v6.327c0,2.483-1.822,3.779-3.623,3.779
				c-1.798,0-3.616-1.296-3.616-3.779v-6.327H222.668z"/>
		</g>
		<g>
			<path fill="#6E6F67" d="M242.558,127.594c-1.073,1.072-2.495,1.608-3.903,1.608c-3.614,0-5.495-2.526-5.511-5.419
				c-0.03-2.861,1.837-5.541,5.511-5.541c1.408,0,2.83,0.536,3.903,1.608l-0.567,0.487c-0.917-0.916-2.128-1.359-3.336-1.359
				c-3.123,0-4.729,2.203-4.716,4.775c0.031,2.51,1.624,4.683,4.716,4.683c1.208,0,2.433-0.459,3.35-1.362L242.558,127.594z"/>
			<path fill="#6E6F67" d="M238.655,129.533c-4.013,0-5.825-2.888-5.841-5.747c-0.018-1.663,0.558-3.173,1.624-4.249
				c1.05-1.063,2.509-1.622,4.217-1.622l0,0c1.569,0,3.036,0.604,4.136,1.703l0.251,0.251l-1.066,0.919l-0.218-0.216
				c-0.816-0.813-1.918-1.265-3.103-1.265c-1.3,0-2.396,0.41-3.169,1.189c-0.793,0.797-1.225,1.952-1.217,3.256
				c0.025,2.007,1.188,4.356,4.386,4.356c1.163,0,2.302-0.465,3.118-1.269l0.228-0.222l1.031,0.97l-0.241,0.238
				C241.691,128.927,240.222,129.533,238.655,129.533z M238.655,118.573c-1.529,0-2.825,0.494-3.748,1.428
				c-0.94,0.95-1.449,2.293-1.434,3.779c0.016,2.535,1.622,5.094,5.182,5.094c1.276,0,2.479-0.452,3.423-1.279l-0.073-0.068
				c-0.917,0.791-2.12,1.239-3.35,1.239c-3.441,0-5.015-2.514-5.044-5.007c-0.008-1.484,0.491-2.808,1.406-3.727
				c0.899-0.905,2.157-1.381,3.638-1.381c1.257,0,2.433,0.438,3.346,1.245l0.063-0.055
				C241.124,119.022,239.925,118.573,238.655,118.573z"/>
		</g>
		<g>
			<path fill="#6E6F67" d="M248.295,119.115h-3.874v-0.734h8.573v0.734h-3.874v9.966h-0.825V119.115z"/>
			<path fill="#6E6F67" d="M249.452,129.409h-1.486v-9.963h-3.873v-1.394h9.231v1.394h-3.872V129.409z M248.624,128.75h0.169v-9.963
				h3.874v-0.078h-7.915v0.078h3.872V128.75z"/>
		</g>
		<g>
			<path fill="#6E6F67" d="M255.484,129.081v-10.714h0.813v10.714H255.484z"/>
			<path fill="#6E6F67" d="M256.626,129.409h-1.471v-11.372h1.471V129.409z M255.814,128.75h0.155v-10.054h-0.155V128.75z"/>
		</g>
		<g>
			<path fill="#6E6F67" d="M268.464,118.367l-4.408,10.744h-0.888l-4.409-10.744h0.89l3.964,9.794l3.964-9.794H268.464z"/>
			<path fill="#6E6F67" d="M264.278,129.44h-1.331l-4.679-11.403h1.603l3.742,9.246l3.74-9.246h1.603L264.278,129.44z
				 M263.715,128.781h0.119l4.139-10.085h-0.176L263.715,128.781z M263.389,128.781h0.119l-4.08-10.085h-0.177L263.389,128.781z"/>
		</g>
		<g>
			<path fill="#6E6F67" d="M271.616,123.309h6.275v0.75h-6.275v4.225h6.764v0.797h-7.578v-10.714h7.395v0.779h-6.58V123.309z"/>
			<path fill="#6E6F67" d="M278.708,129.409h-8.234v-11.372h8.052v1.439h-6.581v3.503h6.275v1.409h-6.275v3.567h6.764V129.409z
				 M271.131,128.75h6.919v-0.138h-6.765v-4.881h6.275v-0.093h-6.275v-4.82h6.58v-0.122h-6.734V128.75z"/>
		</g>
		<g>
			<path fill="#6E6F67" d="M286.257,129.081v-10.714h0.813v10.714H286.257z"/>
			<path fill="#6E6F67" d="M287.4,129.409h-1.471v-11.372h1.471V129.409z M286.587,128.75h0.153v-10.054h-0.153V128.75z"/>
		</g>
		<g>
			<path fill="#6E6F67" d="M299.694,119.56l-4.101,6.275h-0.276l-4.133-6.275v9.521h-0.825v-10.714c0.398,0,0.583,0,0.981,0
				l4.101,6.245l4.058-6.245h1.006v10.714h-0.811V119.56z"/>
			<path fill="#6E6F67" d="M300.834,129.409h-1.469v-8.741l-3.594,5.496h-0.634l-3.625-5.504v8.749h-1.482v-11.372h1.486
				l3.922,5.971l3.878-5.971h1.518V129.409z M300.025,128.75h0.151v-10.054h-0.151V128.75z M290.689,128.75h0.165v-10.054h-0.165
				V128.75z M291.009,118.696l4.445,6.751l4.411-6.751h-0.188l-4.234,6.518l-4.282-6.518H291.009z"/>
		</g>
		<g>
			<path fill="#6E6F67" d="M312.305,129.081l-1.179-2.633h-6.398l-1.163,2.633h-0.889l4.807-10.714h0.904l4.805,10.714H312.305z
				 M310.803,125.682l-2.877-6.521l-2.875,6.521H310.803z"/>
			<path fill="#6E6F67" d="M313.701,129.409h-1.608l-1.18-2.631h-5.969l-1.164,2.631h-1.612l5.104-11.372h1.328L313.701,129.409z
				 M312.519,128.75h0.163l-4.509-10.054h-0.092l3.228,7.314h-6.764l3.228-7.314h-0.076l-4.511,10.054h0.165l1.163-2.63h6.824
				L312.519,128.75z M305.556,125.354h4.742l-2.372-5.377L305.556,125.354z"/>
		</g>
		<g>
			<path fill="#6E6F67" d="M323.428,120.339c-0.934-0.916-2.234-1.375-3.444-1.375c-3.136,0-4.744,2.297-4.729,4.775
				c0,2.525,1.607,4.698,4.729,4.698c1.148,0,2.343-0.398,3.261-1.241v-2.998h-3.734v-0.719h4.517v4.008
				c-1.119,1.117-2.452,1.731-4.043,1.731c-3.641,0-5.523-2.542-5.523-5.464c-0.016-3.354,2.264-5.541,5.523-5.541
				c1.408,0,2.831,0.534,3.919,1.606L323.428,120.339z"/>
			<path fill="#6E6F67" d="M319.984,129.547c-4.043,0-5.854-2.909-5.854-5.792c-0.008-1.71,0.548-3.175,1.606-4.237
				c1.064-1.068,2.531-1.632,4.247-1.632c1.563,0,3.037,0.604,4.15,1.7l0.225,0.222l-0.919,1.006l-0.244-0.239
				c-0.816-0.802-2.017-1.282-3.212-1.282c-1.288,0-2.382,0.416-3.165,1.205c-0.805,0.81-1.243,1.96-1.233,3.238
				c0,2.019,1.151,4.374,4.398,4.374c1.1,0,2.134-0.377,2.932-1.062v-2.52h-3.734v-1.377h5.175v4.474l-0.096,0.096
				C323.045,128.932,321.608,129.547,319.984,129.547z M319.984,118.542c-1.535,0-2.843,0.5-3.781,1.439
				c-0.933,0.938-1.42,2.24-1.414,3.771c0,2.557,1.606,5.135,5.195,5.135c1.422,0,2.637-0.503,3.713-1.538v-3.542h-3.858v0.063
				h3.734v3.472l-0.105,0.097c-0.933,0.857-2.17,1.327-3.483,1.327c-3.493,0-5.058-2.523-5.058-5.026
				c-0.012-1.455,0.496-2.772,1.425-3.707c0.909-0.915,2.164-1.396,3.633-1.396c1.267,0,2.495,0.446,3.424,1.237l0.03-0.035
				C322.481,119.001,321.266,118.542,319.984,118.542z"/>
		</g>
		<g>
			<path fill="#6E6F67" d="M327.987,123.309h6.275v0.75h-6.275v4.225h6.767v0.797h-7.577v-10.714h7.395v0.779h-6.584V123.309z"/>
			<path fill="#6E6F67" d="M335.083,129.409h-8.234v-11.372h8.052v1.439h-6.585v3.503h6.275v1.409h-6.275v3.567h6.768V129.409z
				 M327.504,128.75h6.921v-0.138h-6.767v-4.881h6.275v-0.093h-6.275v-4.82h6.582v-0.122h-6.736V128.75z"/>
		</g>
	</g>
</g>
</svg>
